HIERARCHY
ROOT Hips
{
	OFFSET 0.000000 0.000000 0.000000
	CHANNELS 6 Xposition Yposition Zposition Zrotation Yrotation Xrotation 
	JOINT LHipJoint
	{
		OFFSET 0.000000 0.000000 0.000000
		CHANNELS 3 Zrotation Yrotation Xrotation
		JOINT LeftUpLeg
		{
			OFFSET 1.363060 -1.794630 0.839290
			CHANNELS 3 Zrotation Yrotation Xrotation
			JOINT LeftLeg
			{
				OFFSET 2.448110 -6.726130 0.000000
				CHANNELS 3 Zrotation Yrotation Xrotation
				JOINT LeftFoot
				{
					OFFSET 2.562200 -7.039590 0.000000
					CHANNELS 3 Zrotation Yrotation Xrotation
					JOINT LeftToeBase
					{
						OFFSET 0.157640 -0.433110 2.322550
						CHANNELS 3 Zrotation Yrotation Xrotation
						End Site
						{
							OFFSET 0.000000 0.000000 0.000000
						}
					}
				}
			}
		}
	}
	JOINT RHipJoint
	{
		OFFSET 0.000000 0.000000 0.000000
		CHANNELS 3 Zrotation Yrotation Xrotation
		JOINT RightUpLeg
		{
			OFFSET -1.305520 -1.794630 0.839290
			CHANNELS 3 Zrotation Yrotation Xrotation
			JOINT RightLeg
			{
				OFFSET -2.542530 -6.985550 0.000000
				CHANNELS 3 Zrotation Yrotation Xrotation
				JOINT RightFoot
				{
					OFFSET -2.568260 -7.056230 0.000000
					CHANNELS 3 Zrotation Yrotation Xrotation
					JOINT RightToeBase
					{
						OFFSET -0.164730 -0.452590 2.363150
						CHANNELS 3 Zrotation Yrotation Xrotation
						End Site
						{
							OFFSET 0.000000 0.000000 0.000000
						}
					}
				}
			}
		}
	}
	JOINT LowerBack
	{
		OFFSET 0.000000 0.000000 0.000000
		CHANNELS 3 Zrotation Yrotation Xrotation
		JOINT Spine
		{
			OFFSET 0.028270 2.035590 -0.193380
			CHANNELS 3 Zrotation Yrotation Xrotation
			JOINT Spine1
			{
				OFFSET 0.056720 2.048850 -0.042750
				CHANNELS 3 Zrotation Yrotation Xrotation
				JOINT Neck
				{
					OFFSET 0.000000 0.000000 0.000000
					CHANNELS 3 Zrotation Yrotation Xrotation
					JOINT Neck1
					{
						OFFSET -0.054170 1.746240 0.172020
						CHANNELS 3 Zrotation Yrotation Xrotation
						JOINT Head
						{
							OFFSET 0.104070 1.761360 -0.123970
							CHANNELS 3 Zrotation Yrotation Xrotation
							End Site
							{
								OFFSET 0.000000 0.000000 0.000000
							}
						}
					}
				}
				JOINT LeftShoulder
				{
					OFFSET 0.000000 0.000000 0.000000
					CHANNELS 3 Zrotation Yrotation Xrotation
					JOINT LeftArm
					{
						OFFSET 3.362410 1.200890 -0.311210
						CHANNELS 3 Zrotation Yrotation Xrotation
						JOINT LeftForeArm
						{
							OFFSET 4.983000 -0.000000 -0.000000
							CHANNELS 3 Zrotation Yrotation Xrotation
							JOINT LeftHand
							{
								OFFSET 3.483560 -0.000000 -0.000000
								CHANNELS 3 Zrotation Yrotation Xrotation
								JOINT LeftFingerBase
								{
									OFFSET 0.000000 0.000000 0.000000
									CHANNELS 3 Zrotation Yrotation Xrotation
									JOINT LeftHandIndex1
									{
										OFFSET 0.715260 -0.000000 -0.000000
										CHANNELS 3 Zrotation Yrotation Xrotation
										End Site
										{
											OFFSET 0.000000 0.000000 0.000000
										}
									}
								}
								JOINT LThumb
								{
									OFFSET 0.000000 0.000000 0.000000
									CHANNELS 3 Zrotation Yrotation Xrotation
									End Site
									{
										OFFSET 0.000000 0.000000 0.000000
									}
								}
							}
						}
					}
				}
				JOINT RightShoulder
				{
					OFFSET 0.000000 0.000000 0.000000
					CHANNELS 3 Zrotation Yrotation Xrotation
					JOINT RightArm
					{
						OFFSET -3.136600 1.374050 -0.404650
						CHANNELS 3 Zrotation Yrotation Xrotation
						JOINT RightForeArm
						{
							OFFSET -5.241900 -0.000000 -0.000000
							CHANNELS 3 Zrotation Yrotation Xrotation
							JOINT RightHand
							{
								OFFSET -3.444170 -0.000000 -0.000000
								CHANNELS 3 Zrotation Yrotation Xrotation
								JOINT RightFingerBase
								{
									OFFSET 0.000000 0.000000 0.000000
									CHANNELS 3 Zrotation Yrotation Xrotation
									JOINT RightHandIndex1
									{
										OFFSET -0.622530 -0.000000 -0.000000
										CHANNELS 3 Zrotation Yrotation Xrotation
										End Site
										{
											OFFSET 0.000000 0.000000 0.000000
										}
									}
								}
								JOINT RThumb
								{
									OFFSET 0.000000 0.000000 0.000000
									CHANNELS 3 Zrotation Yrotation Xrotation
									End Site
									{
										OFFSET 0.000000 0.000000 0.000000
									}
								}
							}
						}
					}
				}
			}
		}
	}
}
MOTION
Frames: 5
Frame Time: 0.008333
-6.069964 17.878396 9.613021 -176.728430 80.353226 -166.868116 -1.179059 -1.921292 -2.298760 -10.967819 -11.444548 -27.502463 -0.451615 6.293253 15.783287 1.097538 -5.393121 15.440124 0.129700 -2.321400 -6.394700 2.773844 0.091458 1.485237 19.627700 1.454185 -7.783692 0.191951 -7.208892 20.694406 -4.571762 22.819039 -3.039526 -1.735100 -8.291100 23.601800 -0.990042 1.540946 -8.398883 0.729325 1.519845 -3.103085 -1.508689 1.152767 9.789855 -8.599996 -1.095874 -3.414985 10.006439 -3.210659 8.565784 4.280000 -1.220800 -0.574500 6.368407 -2.743273 1.380572 -95.569261 0.775206 -4.197720 7.395875 -12.853190 -0.846821 -0.031009 -0.296419 42.147935 9.376789 7.203742 1.203400 -7.125000 0.000000 0.000000 -14.881600 37.146700 2.955600 -6.866061 2.428335 2.687770 91.889633 -0.778494 18.172438 -22.001200 34.633023 -5.590329 0.915433 -1.544838 24.613213 0.317535 -5.448262 0.089600 7.125000 0.000000 0.000000 20.647000 -33.798100 6.008500 
-5.827227 17.860248 9.515244 -177.331057 80.611528 -167.447647 -1.158975 -1.881134 -2.282102 -11.702406 -10.852645 -27.407739 -0.368949 6.598666 16.646424 1.157648 -5.135488 16.501308 0.084300 -1.873300 -5.155600 2.746062 -0.036012 1.567532 19.431888 2.209749 -6.624274 0.191518 -7.188802 20.700408 -4.574072 21.804461 -3.586251 -1.556700 -7.874200 22.332700 -1.198316 1.554695 -8.744021 0.700367 1.565745 -3.117998 -1.518858 1.174087 9.877014 -8.489343 -1.093462 -3.575106 9.980421 -3.191453 8.675876 4.224000 -1.208700 -0.503400 6.365913 -2.732788 1.372235 -95.500488 0.890733 -5.764138 7.238069 -12.602220 -0.811342 -0.035348 -0.290764 43.418521 9.356953 7.152884 1.192100 -7.125000 0.000000 0.000000 -14.884400 37.090600 2.977300 -6.854151 2.437781 2.697549 91.921113 -1.297729 18.441030 -21.997885 34.659739 -5.583728 0.920910 -1.546055 24.267810 0.323401 -5.548968 0.091000 7.125000 0.000000 0.000000 20.674200 -33.884800 5.970800 
-5.583500 17.855189 9.418678 -177.995441 80.756751 -168.150104 -1.157171 -1.846511 -2.267083 -12.163812 -10.812966 -27.102552 -0.257729 6.949686 17.647207 1.083895 -5.662899 15.553302 0.328300 -3.682500 -10.185200 2.696966 -0.156314 1.635697 19.303308 2.963766 -5.530307 0.145018 -7.281522 21.026007 -4.543018 20.608087 -4.181423 -1.264800 -7.128600 20.096900 -1.387007 1.581631 -8.999923 0.672298 1.629417 -3.128163 -1.554959 1.205000 9.937839 -8.511140 -1.156029 -3.732056 10.093649 -3.290131 8.816173 4.268900 -1.253700 -0.396500 6.370630 -2.737722 1.367522 -95.384195 0.981493 -6.918481 7.129623 -12.430486 -0.787076 -0.038717 -0.288320 44.400489 9.326951 7.251011 1.203400 -7.125000 0.000000 0.000000 -14.929700 37.182400 2.952300 -6.902867 2.433563 2.674980 92.346388 -1.427272 17.833400 -21.521109 34.242352 -5.398050 0.920563 -1.557035 24.816877 0.383584 -5.538643 0.087200 7.125000 0.000000 0.000000 20.708700 -33.876700 5.986300 
-5.341973 17.856179 9.327500 -179.871261 80.744499 -170.149950 -1.152605 -1.819921 -2.251575 -12.839667 -10.706363 -26.665116 -0.140551 7.276442 18.616777 1.032702 -6.271532 14.907450 0.359700 -3.853100 -10.663800 2.618136 -0.277562 1.688281 19.086578 3.529579 -4.625654 0.033534 -7.526921 21.794379 -4.452138 19.142067 -4.671092 -0.917400 -6.102700 17.082600 -1.859103 1.559183 -9.120228 0.626412 1.679869 -3.119348 -1.509039 1.210392 10.006398 -8.570833 -1.225608 -3.810609 10.314710 -3.428066 8.871353 4.369000 -1.319400 -0.335100 6.360379 -2.773498 1.365580 -95.195698 0.894209 -7.830845 6.969699 -12.166646 -0.749594 -0.046279 -0.283273 45.171373 9.528563 7.373320 1.251000 -7.125000 0.000000 0.000000 -14.784600 37.314900 2.872500 -6.936269 2.419225 2.669694 92.652091 -1.812012 17.286480 -21.167304 33.926978 -5.262596 0.916033 -1.563313 25.099099 0.376975 -5.521409 0.087700 7.125000 0.000000 0.000000 20.696500 -33.860800 5.990900 
-5.108364 17.860468 9.247431 177.203257 80.590524 -173.203591 -1.146918 -1.812059 -2.223953 -13.818517 -10.136203 -26.278037 -0.029063 7.534903 19.439367 1.002195 -7.438264 14.514776 0.428500 -4.201100 -11.643200 2.505428 -0.370574 1.703837 18.765106 3.867392 -4.137298 -0.162622 -7.948114 23.088363 -4.302147 17.916813 -4.648960 -0.765700 -5.588000 15.593500 -2.607756 1.509576 -9.150163 0.553135 1.750499 -3.104885 -1.484896 1.210106 10.033170 -8.465604 -1.301397 -3.780769 10.567422 -3.592671 8.857422 4.428100 -1.402100 -0.327500 6.359470 -2.838558 1.371788 -94.896158 0.631860 -9.091126 6.755748 -11.814802 -0.701779 -0.056805 -0.272506 46.387697 9.849012 7.444747 1.307600 -7.125000 0.000000 0.000000 -14.525400 37.403300 2.787100 -6.996307 2.406817 2.659638 93.290296 -2.123856 16.268095 -20.618497 33.425509 -5.054334 0.892727 -1.588133 25.763451 0.112335 -5.388466 0.105000 7.125000 0.000000 0.000000 20.454200 -33.735500 5.978800 
